TITLE ""
FILE "1Q_j_2114-2127.mp3" MP3
  TRACK 01 AUDIO
    TITLE "1Q_j_2114-2127_01"
    INDEX 01 00:00:00
  TRACK 02 AUDIO
    TITLE "1Q_j_2114-2127_02"
    INDEX 01 00:01:18
  TRACK 03 AUDIO
    TITLE "1Q_j_2114-2127_03"
    INDEX 01 00:01:29
  TRACK 04 AUDIO
    TITLE "1Q_j_2114-2127_04"
    INDEX 01 00:03:16
  TRACK 05 AUDIO
    TITLE "1Q_j_2114-2127_05"
    INDEX 01 00:03:24
  TRACK 06 AUDIO
    TITLE "1Q_j_2114-2127_06"
    INDEX 01 00:07:30
  TRACK 07 AUDIO
    TITLE "1Q_j_2114-2127_07"
    INDEX 01 00:08:00
  TRACK 08 AUDIO
    TITLE "1Q_j_2114-2127_08"
    INDEX 01 00:09:15
  TRACK 09 AUDIO
    TITLE "1Q_j_2114-2127_09"
    INDEX 01 00:09:31
  TRACK 10 AUDIO
    TITLE "1Q_j_2114-2127_10"
    INDEX 01 00:12:00
  TRACK 11 AUDIO
    TITLE "1Q_j_2114-2127_11"
    INDEX 01 00:12:04
  TRACK 12 AUDIO
    TITLE "1Q_j_2114-2127_12"
    INDEX 01 00:18:36
  TRACK 13 AUDIO
    TITLE "1Q_j_2114-2127_13"
    INDEX 01 00:19:12
  TRACK 14 AUDIO
    TITLE "1Q_j_2114-2127_14"
    INDEX 01 00:20:54
  TRACK 15 AUDIO
    TITLE "1Q_j_2114-2127_15"
    INDEX 01 00:20:64
  TRACK 16 AUDIO
    TITLE "1Q_j_2114-2127_16"
    INDEX 01 00:22:57
  TRACK 17 AUDIO
    TITLE "1Q_j_2114-2127_17"
    INDEX 01 00:22:65
  TRACK 18 AUDIO
    TITLE "1Q_j_2114-2127_18"
    INDEX 01 00:29:47
  TRACK 19 AUDIO
    TITLE "1Q_j_2114-2127_19"
    INDEX 01 00:30:21
  TRACK 20 AUDIO
    TITLE "1Q_j_2114-2127_20"
    INDEX 01 00:31:32
  TRACK 21 AUDIO
    TITLE "1Q_j_2114-2127_21"
    INDEX 01 00:31:42
  TRACK 22 AUDIO
    TITLE "1Q_j_2114-2127_22"
    INDEX 01 00:33:47
  TRACK 23 AUDIO
    TITLE "1Q_j_2114-2127_23"
    INDEX 01 00:33:55
  TRACK 24 AUDIO
    TITLE "1Q_j_2114-2127_24"
    INDEX 01 00:39:51
  TRACK 25 AUDIO
    TITLE "1Q_j_2114-2127_25"
    INDEX 01 00:40:24
  TRACK 26 AUDIO
    TITLE "1Q_j_2114-2127_26"
    INDEX 01 00:41:39
  TRACK 27 AUDIO
    TITLE "1Q_j_2114-2127_27"
    INDEX 01 00:41:48
  TRACK 28 AUDIO
    TITLE "1Q_j_2114-2127_28"
    INDEX 01 00:43:12
  TRACK 29 AUDIO
    TITLE "1Q_j_2114-2127_29"
    INDEX 01 00:43:22
  TRACK 30 AUDIO
    TITLE "1Q_j_2114-2127_30"
    INDEX 01 00:48:43
  TRACK 31 AUDIO
    TITLE "1Q_j_2114-2127_31"
    INDEX 01 00:49:15
  TRACK 32 AUDIO
    TITLE "1Q_j_2114-2127_32"
    INDEX 01 00:50:32
  TRACK 33 AUDIO
    TITLE "1Q_j_2114-2127_33"
    INDEX 01 00:50:42
  TRACK 34 AUDIO
    TITLE "1Q_j_2114-2127_34"
    INDEX 01 00:51:61
  TRACK 35 AUDIO
    TITLE "1Q_j_2114-2127_35"
    INDEX 01 00:51:68
  TRACK 36 AUDIO
    TITLE "1Q_j_2114-2127_36"
    INDEX 01 00:56:07
  TRACK 37 AUDIO
    TITLE "1Q_j_2114-2127_37"
    INDEX 01 00:56:54
  TRACK 38 AUDIO
    TITLE "1Q_j_2114-2127_38"
    INDEX 01 00:58:00
  TRACK 39 AUDIO
    TITLE "1Q_j_2114-2127_39"
    INDEX 01 00:58:08
  TRACK 40 AUDIO
    TITLE "1Q_j_2114-2127_40"
    INDEX 01 01:00:56
  TRACK 41 AUDIO
    TITLE "1Q_j_2114-2127_41"
    INDEX 01 01:00:61
  TRACK 42 AUDIO
    TITLE "1Q_j_2114-2127_42"
    INDEX 01 01:05:41
  TRACK 43 AUDIO
    TITLE "1Q_j_2114-2127_43"
    INDEX 01 01:06:11
  TRACK 44 AUDIO
    TITLE "1Q_j_2114-2127_44"
    INDEX 01 01:07:16
  TRACK 45 AUDIO
    TITLE "1Q_j_2114-2127_45"
    INDEX 01 01:07:38
  TRACK 46 AUDIO
    TITLE "1Q_j_2114-2127_46"
    INDEX 01 01:09:45
  TRACK 47 AUDIO
    TITLE "1Q_j_2114-2127_47"
    INDEX 01 01:09:53
  TRACK 48 AUDIO
    TITLE "1Q_j_2114-2127_48"
    INDEX 01 01:13:43
  TRACK 49 AUDIO
    TITLE "1Q_j_2114-2127_49"
    INDEX 01 01:14:15
  TRACK 50 AUDIO
    TITLE "1Q_j_2114-2127_50"
    INDEX 01 01:15:41
  TRACK 51 AUDIO
    TITLE "1Q_j_2114-2127_51"
    INDEX 01 01:15:49
  TRACK 52 AUDIO
    TITLE "1Q_j_2114-2127_52"
    INDEX 01 01:17:29
  TRACK 53 AUDIO
    TITLE "1Q_j_2114-2127_53"
    INDEX 01 01:17:34
  TRACK 54 AUDIO
    TITLE "1Q_j_2114-2127_54"
    INDEX 01 01:23:37
  TRACK 55 AUDIO
    TITLE "1Q_j_2114-2127_55"
    INDEX 01 01:24:07
  TRACK 56 AUDIO
    TITLE "1Q_j_2114-2127_56"
    INDEX 01 01:25:28
  TRACK 57 AUDIO
    TITLE "1Q_j_2114-2127_57"
    INDEX 01 01:25:36
  TRACK 58 AUDIO
    TITLE "1Q_j_2114-2127_58"
    INDEX 01 01:26:45
  TRACK 59 AUDIO
    TITLE "1Q_j_2114-2127_59"
    INDEX 01 01:26:53
  TRACK 60 AUDIO
    TITLE "1Q_j_2114-2127_60"
    INDEX 01 01:31:09
  TRACK 61 AUDIO
    TITLE "1Q_j_2114-2127_61"
    INDEX 01 01:31:56
  TRACK 62 AUDIO
    TITLE "1Q_j_2114-2127_62"
    INDEX 01 01:33:02
  TRACK 63 AUDIO
    TITLE "1Q_j_2114-2127_63"
    INDEX 01 01:33:10
  TRACK 64 AUDIO
    TITLE "1Q_j_2114-2127_64"
    INDEX 01 01:35:60
  TRACK 65 AUDIO
    TITLE "1Q_j_2114-2127_65"
    INDEX 01 01:35:68
  TRACK 66 AUDIO
    TITLE "1Q_j_2114-2127_66"
    INDEX 01 01:42:23
  TRACK 67 AUDIO
    TITLE "1Q_j_2114-2127_67"
    INDEX 01 01:42:68
  TRACK 68 AUDIO
    TITLE "1Q_j_2114-2127_68"
    INDEX 01 01:43:71
  TRACK 69 AUDIO
    TITLE "1Q_j_2114-2127_69"
    INDEX 01 01:44:16
  TRACK 70 AUDIO
    TITLE "1Q_j_2114-2127_70"
    INDEX 01 01:48:53
  TRACK 71 AUDIO
    TITLE "1Q_j_2114-2127_71"
    INDEX 01 01:48:62
  TRACK 72 AUDIO
    TITLE "1Q_j_2114-2127_72"
    INDEX 01 01:52:43
  TRACK 73 AUDIO
    TITLE "1Q_j_2114-2127_73"
    INDEX 01 01:53:13
  TRACK 74 AUDIO
    TITLE "1Q_j_2114-2127_74"
    INDEX 01 01:54:18
  TRACK 75 AUDIO
    TITLE "1Q_j_2114-2127_75"
    INDEX 01 01:54:28
  TRACK 76 AUDIO
    TITLE "1Q_j_2114-2127_76"
    INDEX 01 01:55:61
  TRACK 77 AUDIO
    TITLE "1Q_j_2114-2127_77"
    INDEX 01 01:55:66
  TRACK 78 AUDIO
    TITLE "1Q_j_2114-2127_78"
    INDEX 01 02:01:67
  TRACK 79 AUDIO
    TITLE "1Q_j_2114-2127_79"
    INDEX 01 02:02:37
  TRACK 80 AUDIO
    TITLE "1Q_j_2114-2127_80"
    INDEX 01 02:03:44
  TRACK 81 AUDIO
    TITLE "1Q_j_2114-2127_81"
    INDEX 01 02:03:56
  TRACK 82 AUDIO
    TITLE "1Q_j_2114-2127_82"
    INDEX 01 02:05:55
  TRACK 83 AUDIO
    TITLE "1Q_j_2114-2127_83"
    INDEX 01 02:05:63
  TRACK 84 AUDIO
    TITLE "1Q_j_2114-2127_84"
    INDEX 01 02:11:22
